<mxfile host="app.diagrams.net" modified="2024-01-05T09:36:14.113Z" agent="Mozilla/5.0 (Macintosh; Intel Mac OS X 10_15_7) AppleWebKit/537.36 (KHTML, like Gecko) Chrome/120.0.0.0 Safari/537.36" etag="Tr-VYTC-854uEVaNpX1X" version="22.1.16" type="github" pages="3">
  <diagram id="iVVIwtvHvN4EUUnVoQLu" name="Page-1">
    <mxGraphModel dx="954" dy="496" grid="1" gridSize="10" guides="1" tooltips="1" connect="1" arrows="1" fold="1" page="1" pageScale="1" pageWidth="827" pageHeight="1169" math="0" shadow="0">
      <root>
        <mxCell id="0" />
        <mxCell id="1" parent="0" />
        <mxCell id="pmS4FOYLAidAg7xTJZJV-79" value="" style="rounded=0;whiteSpace=wrap;html=1;" parent="1" vertex="1">
          <mxGeometry x="400" y="250" width="1110" height="1050" as="geometry" />
        </mxCell>
        <mxCell id="pmS4FOYLAidAg7xTJZJV-16" value="" style="rounded=0;whiteSpace=wrap;html=1;fillColor=#d5e8d4;strokeColor=#82b366;" parent="1" vertex="1">
          <mxGeometry x="1250" y="560" width="220" height="160" as="geometry" />
        </mxCell>
        <mxCell id="pmS4FOYLAidAg7xTJZJV-32" value="" style="rounded=0;whiteSpace=wrap;html=1;fillColor=#d5e8d4;strokeColor=#82b366;" parent="1" vertex="1">
          <mxGeometry x="440" y="790" width="1030" height="250" as="geometry" />
        </mxCell>
        <mxCell id="pmS4FOYLAidAg7xTJZJV-2" value="" style="rounded=0;whiteSpace=wrap;html=1;fillColor=#d5e8d4;strokeColor=#82b366;" parent="1" vertex="1">
          <mxGeometry x="650" y="360" width="220" height="360" as="geometry" />
        </mxCell>
        <mxCell id="pmS4FOYLAidAg7xTJZJV-3" value="Create Vector Database" style="rounded=1;whiteSpace=wrap;html=1;fillColor=#60a917;fontColor=#ffffff;strokeColor=#2D7600;" parent="1" vertex="1">
          <mxGeometry x="660" y="370" width="150" height="20" as="geometry" />
        </mxCell>
        <mxCell id="pmS4FOYLAidAg7xTJZJV-6" value="" style="edgeStyle=orthogonalEdgeStyle;rounded=0;orthogonalLoop=1;jettySize=auto;html=1;" parent="1" source="pmS4FOYLAidAg7xTJZJV-4" target="pmS4FOYLAidAg7xTJZJV-5" edge="1">
          <mxGeometry relative="1" as="geometry" />
        </mxCell>
        <mxCell id="pmS4FOYLAidAg7xTJZJV-4" value="Langchain Loaders" style="rounded=1;whiteSpace=wrap;html=1;" parent="1" vertex="1">
          <mxGeometry x="700" y="420" width="120" height="60" as="geometry" />
        </mxCell>
        <mxCell id="pmS4FOYLAidAg7xTJZJV-8" value="" style="edgeStyle=orthogonalEdgeStyle;rounded=0;orthogonalLoop=1;jettySize=auto;html=1;" parent="1" source="pmS4FOYLAidAg7xTJZJV-5" target="pmS4FOYLAidAg7xTJZJV-7" edge="1">
          <mxGeometry relative="1" as="geometry" />
        </mxCell>
        <mxCell id="pmS4FOYLAidAg7xTJZJV-5" value="Text Splitter" style="whiteSpace=wrap;html=1;rounded=1;" parent="1" vertex="1">
          <mxGeometry x="700" y="520" width="120" height="60" as="geometry" />
        </mxCell>
        <mxCell id="pmS4FOYLAidAg7xTJZJV-76" style="edgeStyle=orthogonalEdgeStyle;rounded=0;orthogonalLoop=1;jettySize=auto;html=1;exitX=0.5;exitY=1;exitDx=0;exitDy=0;entryX=0.5;entryY=0;entryDx=0;entryDy=0;dashed=1;" parent="1" source="pmS4FOYLAidAg7xTJZJV-7" target="pmS4FOYLAidAg7xTJZJV-19" edge="1">
          <mxGeometry relative="1" as="geometry" />
        </mxCell>
        <mxCell id="pmS4FOYLAidAg7xTJZJV-7" value="Create and Save FAISS Index" style="whiteSpace=wrap;html=1;rounded=1;" parent="1" vertex="1">
          <mxGeometry x="700" y="625" width="120" height="60" as="geometry" />
        </mxCell>
        <mxCell id="pmS4FOYLAidAg7xTJZJV-9" value="" style="rounded=0;whiteSpace=wrap;html=1;fillColor=#fff2cc;strokeColor=#d6b656;" parent="1" vertex="1">
          <mxGeometry x="1250" y="275" width="220" height="240" as="geometry" />
        </mxCell>
        <mxCell id="pmS4FOYLAidAg7xTJZJV-10" value="HuggingFace API" style="rounded=1;whiteSpace=wrap;html=1;fillColor=#FFD966;fontColor=#000000;strokeColor=#B09500;" parent="1" vertex="1">
          <mxGeometry x="1260" y="285" width="150" height="20" as="geometry" />
        </mxCell>
        <mxCell id="pmS4FOYLAidAg7xTJZJV-11" value="" style="edgeStyle=orthogonalEdgeStyle;rounded=0;orthogonalLoop=1;jettySize=auto;html=1;" parent="1" source="pmS4FOYLAidAg7xTJZJV-12" target="pmS4FOYLAidAg7xTJZJV-14" edge="1">
          <mxGeometry relative="1" as="geometry" />
        </mxCell>
        <mxCell id="pmS4FOYLAidAg7xTJZJV-12" value="Load API Token" style="rounded=1;whiteSpace=wrap;html=1;" parent="1" vertex="1">
          <mxGeometry x="1300" y="335" width="120" height="60" as="geometry" />
        </mxCell>
        <mxCell id="pmS4FOYLAidAg7xTJZJV-50" style="edgeStyle=orthogonalEdgeStyle;rounded=0;orthogonalLoop=1;jettySize=auto;html=1;exitX=1;exitY=0.5;exitDx=0;exitDy=0;entryX=1;entryY=0.5;entryDx=0;entryDy=0;" parent="1" source="pmS4FOYLAidAg7xTJZJV-14" target="pmS4FOYLAidAg7xTJZJV-49" edge="1">
          <mxGeometry relative="1" as="geometry" />
        </mxCell>
        <mxCell id="pmS4FOYLAidAg7xTJZJV-14" value="HuggingFace Hub" style="whiteSpace=wrap;html=1;rounded=1;" parent="1" vertex="1">
          <mxGeometry x="1300" y="435" width="120" height="60" as="geometry" />
        </mxCell>
        <mxCell id="pmS4FOYLAidAg7xTJZJV-17" value="Create LLM Chain" style="rounded=1;whiteSpace=wrap;html=1;fillColor=#60a917;fontColor=#ffffff;strokeColor=#2D7600;" parent="1" vertex="1">
          <mxGeometry x="1260" y="570" width="150" height="20" as="geometry" />
        </mxCell>
        <mxCell id="pmS4FOYLAidAg7xTJZJV-18" value="" style="edgeStyle=orthogonalEdgeStyle;rounded=0;orthogonalLoop=1;jettySize=auto;html=1;" parent="1" source="pmS4FOYLAidAg7xTJZJV-19" target="pmS4FOYLAidAg7xTJZJV-21" edge="1">
          <mxGeometry relative="1" as="geometry" />
        </mxCell>
        <mxCell id="pmS4FOYLAidAg7xTJZJV-19" value="Import FAISS Vector Database" style="rounded=1;whiteSpace=wrap;html=1;" parent="1" vertex="1">
          <mxGeometry x="630" y="830" width="120" height="60" as="geometry" />
        </mxCell>
        <mxCell id="pmS4FOYLAidAg7xTJZJV-43" value="" style="edgeStyle=orthogonalEdgeStyle;rounded=0;orthogonalLoop=1;jettySize=auto;html=1;" parent="1" source="pmS4FOYLAidAg7xTJZJV-21" target="pmS4FOYLAidAg7xTJZJV-42" edge="1">
          <mxGeometry relative="1" as="geometry" />
        </mxCell>
        <mxCell id="pmS4FOYLAidAg7xTJZJV-21" value="Get Context via Retrtiever" style="whiteSpace=wrap;html=1;rounded=1;" parent="1" vertex="1">
          <mxGeometry x="790" y="830" width="120" height="60" as="geometry" />
        </mxCell>
        <mxCell id="pmS4FOYLAidAg7xTJZJV-25" value="" style="rounded=0;whiteSpace=wrap;html=1;" parent="1" vertex="1">
          <mxGeometry x="440" y="275" width="170" height="150" as="geometry" />
        </mxCell>
        <mxCell id="pmS4FOYLAidAg7xTJZJV-26" value="Tools Used" style="rounded=1;whiteSpace=wrap;html=1;fillColor=#f5f5f5;fontColor=#333333;strokeColor=#666666;" parent="1" vertex="1">
          <mxGeometry x="450" y="285" width="150" height="20" as="geometry" />
        </mxCell>
        <mxCell id="pmS4FOYLAidAg7xTJZJV-28" value="LangChain" style="rounded=1;whiteSpace=wrap;html=1;fillColor=#60a917;fontColor=#ffffff;strokeColor=#2D7600;" parent="1" vertex="1">
          <mxGeometry x="450" y="315" width="90" height="20" as="geometry" />
        </mxCell>
        <mxCell id="pmS4FOYLAidAg7xTJZJV-30" value="HuggingFace" style="rounded=1;whiteSpace=wrap;html=1;fillColor=#FFD966;fontColor=#000000;strokeColor=#B09500;arcSize=20;" parent="1" vertex="1">
          <mxGeometry x="450" y="345" width="90" height="20" as="geometry" />
        </mxCell>
        <mxCell id="pmS4FOYLAidAg7xTJZJV-31" value="Streamlit" style="rounded=1;whiteSpace=wrap;html=1;fillColor=#e51400;fontColor=#ffffff;strokeColor=#B20000;arcSize=20;" parent="1" vertex="1">
          <mxGeometry x="450" y="375" width="90" height="20" as="geometry" />
        </mxCell>
        <mxCell id="pmS4FOYLAidAg7xTJZJV-33" value="Create RAG Chain" style="rounded=1;whiteSpace=wrap;html=1;fillColor=#60a917;fontColor=#ffffff;strokeColor=#2D7600;" parent="1" vertex="1">
          <mxGeometry x="460" y="800" width="150" height="20" as="geometry" />
        </mxCell>
        <mxCell id="pmS4FOYLAidAg7xTJZJV-36" value="" style="rounded=0;whiteSpace=wrap;html=1;fillColor=#f8cecc;strokeColor=#b85450;" parent="1" vertex="1">
          <mxGeometry x="440" y="1100" width="690" height="170" as="geometry" />
        </mxCell>
        <mxCell id="pmS4FOYLAidAg7xTJZJV-41" style="edgeStyle=orthogonalEdgeStyle;rounded=0;orthogonalLoop=1;jettySize=auto;html=1;entryX=0.5;entryY=1;entryDx=0;entryDy=0;exitX=0.5;exitY=0;exitDx=0;exitDy=0;" parent="1" source="pmS4FOYLAidAg7xTJZJV-38" target="pmS4FOYLAidAg7xTJZJV-44" edge="1">
          <mxGeometry relative="1" as="geometry">
            <Array as="points">
              <mxPoint x="650" y="1160" />
              <mxPoint x="650" y="1060" />
              <mxPoint x="520" y="1060" />
            </Array>
          </mxGeometry>
        </mxCell>
        <mxCell id="pmS4FOYLAidAg7xTJZJV-38" value="User Input" style="rounded=1;whiteSpace=wrap;html=1;" parent="1" vertex="1">
          <mxGeometry x="610" y="1160" width="120" height="60" as="geometry" />
        </mxCell>
        <mxCell id="pmS4FOYLAidAg7xTJZJV-40" value="UI" style="rounded=1;whiteSpace=wrap;html=1;fillColor=#e51400;fontColor=#ffffff;strokeColor=#B20000;" parent="1" vertex="1">
          <mxGeometry x="450" y="1119" width="150" height="20" as="geometry" />
        </mxCell>
        <mxCell id="pmS4FOYLAidAg7xTJZJV-59" value="" style="edgeStyle=orthogonalEdgeStyle;rounded=0;orthogonalLoop=1;jettySize=auto;html=1;" parent="1" source="pmS4FOYLAidAg7xTJZJV-42" target="pmS4FOYLAidAg7xTJZJV-58" edge="1">
          <mxGeometry relative="1" as="geometry" />
        </mxCell>
        <mxCell id="pmS4FOYLAidAg7xTJZJV-42" value="Context Info" style="shape=document;whiteSpace=wrap;html=1;boundedLbl=1;rounded=1;" parent="1" vertex="1">
          <mxGeometry x="950" y="820" width="120" height="80" as="geometry" />
        </mxCell>
        <mxCell id="pmS4FOYLAidAg7xTJZJV-45" style="edgeStyle=orthogonalEdgeStyle;rounded=0;orthogonalLoop=1;jettySize=auto;html=1;exitX=1;exitY=0.5;exitDx=0;exitDy=0;entryX=0;entryY=0.5;entryDx=0;entryDy=0;" parent="1" source="pmS4FOYLAidAg7xTJZJV-44" target="pmS4FOYLAidAg7xTJZJV-19" edge="1">
          <mxGeometry relative="1" as="geometry" />
        </mxCell>
        <mxCell id="pmS4FOYLAidAg7xTJZJV-46" value="" style="edgeStyle=orthogonalEdgeStyle;rounded=0;orthogonalLoop=1;jettySize=auto;html=1;" parent="1" source="pmS4FOYLAidAg7xTJZJV-44" target="pmS4FOYLAidAg7xTJZJV-19" edge="1">
          <mxGeometry relative="1" as="geometry" />
        </mxCell>
        <mxCell id="pmS4FOYLAidAg7xTJZJV-47" value="" style="edgeStyle=orthogonalEdgeStyle;rounded=0;orthogonalLoop=1;jettySize=auto;html=1;" parent="1" source="pmS4FOYLAidAg7xTJZJV-44" target="pmS4FOYLAidAg7xTJZJV-19" edge="1">
          <mxGeometry relative="1" as="geometry" />
        </mxCell>
        <mxCell id="pmS4FOYLAidAg7xTJZJV-65" style="edgeStyle=orthogonalEdgeStyle;rounded=0;orthogonalLoop=1;jettySize=auto;html=1;exitX=1;exitY=0.5;exitDx=0;exitDy=0;" parent="1" source="pmS4FOYLAidAg7xTJZJV-44" target="pmS4FOYLAidAg7xTJZJV-53" edge="1">
          <mxGeometry relative="1" as="geometry" />
        </mxCell>
        <mxCell id="pmS4FOYLAidAg7xTJZJV-44" value="Query" style="rounded=1;whiteSpace=wrap;html=1;" parent="1" vertex="1">
          <mxGeometry x="460" y="885" width="120" height="60" as="geometry" />
        </mxCell>
        <mxCell id="pmS4FOYLAidAg7xTJZJV-77" style="edgeStyle=orthogonalEdgeStyle;rounded=0;orthogonalLoop=1;jettySize=auto;html=1;exitX=0.5;exitY=1;exitDx=0;exitDy=0;" parent="1" source="pmS4FOYLAidAg7xTJZJV-49" target="pmS4FOYLAidAg7xTJZJV-66" edge="1">
          <mxGeometry relative="1" as="geometry" />
        </mxCell>
        <mxCell id="pmS4FOYLAidAg7xTJZJV-49" value="Load LLM" style="whiteSpace=wrap;html=1;rounded=1;" parent="1" vertex="1">
          <mxGeometry x="1300" y="620" width="120" height="60" as="geometry" />
        </mxCell>
        <mxCell id="pmS4FOYLAidAg7xTJZJV-57" value="" style="edgeStyle=orthogonalEdgeStyle;rounded=0;orthogonalLoop=1;jettySize=auto;html=1;" parent="1" source="pmS4FOYLAidAg7xTJZJV-53" target="pmS4FOYLAidAg7xTJZJV-56" edge="1">
          <mxGeometry relative="1" as="geometry" />
        </mxCell>
        <mxCell id="pmS4FOYLAidAg7xTJZJV-53" value="Create Memory" style="rounded=1;whiteSpace=wrap;html=1;" parent="1" vertex="1">
          <mxGeometry x="630" y="930" width="120" height="60" as="geometry" />
        </mxCell>
        <mxCell id="pmS4FOYLAidAg7xTJZJV-68" style="edgeStyle=orthogonalEdgeStyle;rounded=0;orthogonalLoop=1;jettySize=auto;html=1;exitX=1;exitY=0.5;exitDx=0;exitDy=0;entryX=0;entryY=0.5;entryDx=0;entryDy=0;" parent="1" source="pmS4FOYLAidAg7xTJZJV-56" target="pmS4FOYLAidAg7xTJZJV-66" edge="1">
          <mxGeometry relative="1" as="geometry">
            <Array as="points">
              <mxPoint x="1260" y="960" />
              <mxPoint x="1260" y="920" />
            </Array>
          </mxGeometry>
        </mxCell>
        <mxCell id="pmS4FOYLAidAg7xTJZJV-56" value="Chat History" style="shape=document;whiteSpace=wrap;html=1;boundedLbl=1;rounded=1;" parent="1" vertex="1">
          <mxGeometry x="790" y="920" width="120" height="80" as="geometry" />
        </mxCell>
        <mxCell id="pmS4FOYLAidAg7xTJZJV-67" value="" style="edgeStyle=orthogonalEdgeStyle;rounded=0;orthogonalLoop=1;jettySize=auto;html=1;" parent="1" source="pmS4FOYLAidAg7xTJZJV-58" target="pmS4FOYLAidAg7xTJZJV-66" edge="1">
          <mxGeometry relative="1" as="geometry" />
        </mxCell>
        <mxCell id="pmS4FOYLAidAg7xTJZJV-58" value="Create Prompt" style="whiteSpace=wrap;html=1;rounded=1;" parent="1" vertex="1">
          <mxGeometry x="1100" y="830" width="120" height="60" as="geometry" />
        </mxCell>
        <mxCell id="pmS4FOYLAidAg7xTJZJV-60" value="" style="rounded=0;whiteSpace=wrap;html=1;fillColor=#d5e8d4;strokeColor=#82b366;" parent="1" vertex="1">
          <mxGeometry x="965" y="560" width="220" height="160" as="geometry" />
        </mxCell>
        <mxCell id="pmS4FOYLAidAg7xTJZJV-61" value="Create Propmt Template" style="rounded=1;whiteSpace=wrap;html=1;fillColor=#60a917;fontColor=#ffffff;strokeColor=#2D7600;" parent="1" vertex="1">
          <mxGeometry x="980" y="570" width="150" height="20" as="geometry" />
        </mxCell>
        <mxCell id="pmS4FOYLAidAg7xTJZJV-63" style="edgeStyle=orthogonalEdgeStyle;rounded=0;orthogonalLoop=1;jettySize=auto;html=1;exitX=0.5;exitY=1;exitDx=0;exitDy=0;" parent="1" source="pmS4FOYLAidAg7xTJZJV-62" target="pmS4FOYLAidAg7xTJZJV-58" edge="1">
          <mxGeometry relative="1" as="geometry" />
        </mxCell>
        <mxCell id="pmS4FOYLAidAg7xTJZJV-62" value="Prompt Template" style="whiteSpace=wrap;html=1;rounded=1;" parent="1" vertex="1">
          <mxGeometry x="1015" y="610" width="120" height="60" as="geometry" />
        </mxCell>
        <mxCell id="pmS4FOYLAidAg7xTJZJV-70" style="edgeStyle=orthogonalEdgeStyle;rounded=0;orthogonalLoop=1;jettySize=auto;html=1;exitX=1;exitY=0.5;exitDx=0;exitDy=0;" parent="1" source="pmS4FOYLAidAg7xTJZJV-66" target="pmS4FOYLAidAg7xTJZJV-69" edge="1">
          <mxGeometry relative="1" as="geometry">
            <Array as="points">
              <mxPoint x="1440" y="920" />
              <mxPoint x="1440" y="1060" />
              <mxPoint x="870" y="1060" />
            </Array>
          </mxGeometry>
        </mxCell>
        <mxCell id="pmS4FOYLAidAg7xTJZJV-66" value="Create Chain" style="whiteSpace=wrap;html=1;rounded=1;" parent="1" vertex="1">
          <mxGeometry x="1300" y="890" width="120" height="60" as="geometry" />
        </mxCell>
        <mxCell id="pmS4FOYLAidAg7xTJZJV-72" value="" style="edgeStyle=orthogonalEdgeStyle;rounded=0;orthogonalLoop=1;jettySize=auto;html=1;" parent="1" source="pmS4FOYLAidAg7xTJZJV-69" target="pmS4FOYLAidAg7xTJZJV-71" edge="1">
          <mxGeometry relative="1" as="geometry" />
        </mxCell>
        <mxCell id="pmS4FOYLAidAg7xTJZJV-69" value="Get Response" style="rounded=1;whiteSpace=wrap;html=1;" parent="1" vertex="1">
          <mxGeometry x="810" y="1160" width="120" height="60" as="geometry" />
        </mxCell>
        <mxCell id="pmS4FOYLAidAg7xTJZJV-71" value="Display Answer" style="rounded=1;whiteSpace=wrap;html=1;" parent="1" vertex="1">
          <mxGeometry x="970" y="1160" width="120" height="60" as="geometry" />
        </mxCell>
        <mxCell id="pmS4FOYLAidAg7xTJZJV-75" style="edgeStyle=orthogonalEdgeStyle;rounded=0;orthogonalLoop=1;jettySize=auto;html=1;exitX=1;exitY=0.5;exitDx=0;exitDy=0;" parent="1" source="pmS4FOYLAidAg7xTJZJV-73" target="pmS4FOYLAidAg7xTJZJV-38" edge="1">
          <mxGeometry relative="1" as="geometry" />
        </mxCell>
        <mxCell id="pmS4FOYLAidAg7xTJZJV-73" value="Load interface" style="rounded=1;whiteSpace=wrap;html=1;" parent="1" vertex="1">
          <mxGeometry x="450" y="1160" width="120" height="60" as="geometry" />
        </mxCell>
      </root>
    </mxGraphModel>
  </diagram>
  <diagram id="dV_hx7cCz1TUT6jtlzeG" name="Page-2">
    <mxGraphModel dx="954" dy="496" grid="1" gridSize="10" guides="1" tooltips="1" connect="1" arrows="1" fold="1" page="1" pageScale="1" pageWidth="827" pageHeight="1169" math="0" shadow="0">
      <root>
        <mxCell id="0" />
        <mxCell id="1" parent="0" />
        <mxCell id="EpT9jE0YNKC7ViH85laE-27" style="edgeStyle=none;rounded=0;orthogonalLoop=1;jettySize=auto;html=1;exitX=0.75;exitY=0.1;exitDx=0;exitDy=0;exitPerimeter=0;entryX=0;entryY=0.5;entryDx=0;entryDy=0;endArrow=none;endFill=0;" edge="1" parent="1" source="EpT9jE0YNKC7ViH85laE-1" target="EpT9jE0YNKC7ViH85laE-26">
          <mxGeometry relative="1" as="geometry" />
        </mxCell>
        <mxCell id="EpT9jE0YNKC7ViH85laE-1" value="Usuario" style="shape=umlActor;verticalLabelPosition=bottom;verticalAlign=top;html=1;outlineConnect=0;" vertex="1" parent="1">
          <mxGeometry x="140" y="180" width="30" height="60" as="geometry" />
        </mxCell>
        <mxCell id="EpT9jE0YNKC7ViH85laE-24" style="edgeStyle=none;rounded=0;orthogonalLoop=1;jettySize=auto;html=1;endArrow=none;endFill=0;" edge="1" parent="1" target="EpT9jE0YNKC7ViH85laE-23">
          <mxGeometry relative="1" as="geometry">
            <mxPoint x="180" y="590" as="sourcePoint" />
          </mxGeometry>
        </mxCell>
        <mxCell id="EpT9jE0YNKC7ViH85laE-4" value="Administrador" style="shape=umlActor;verticalLabelPosition=bottom;verticalAlign=top;html=1;outlineConnect=0;" vertex="1" parent="1">
          <mxGeometry x="140" y="540" width="30" height="60" as="geometry" />
        </mxCell>
        <mxCell id="EpT9jE0YNKC7ViH85laE-6" value="Actualizar datos del bot" style="ellipse;whiteSpace=wrap;html=1;" vertex="1" parent="1">
          <mxGeometry x="280" y="535" width="100" height="50" as="geometry" />
        </mxCell>
        <mxCell id="EpT9jE0YNKC7ViH85laE-13" style="edgeStyle=none;rounded=0;orthogonalLoop=1;jettySize=auto;html=1;entryX=1;entryY=0.5;entryDx=0;entryDy=0;endArrow=none;endFill=0;" edge="1" parent="1" source="EpT9jE0YNKC7ViH85laE-7" target="EpT9jE0YNKC7ViH85laE-12">
          <mxGeometry relative="1" as="geometry" />
        </mxCell>
        <mxCell id="EpT9jE0YNKC7ViH85laE-7" value="Bot" style="shape=umlActor;verticalLabelPosition=bottom;verticalAlign=top;html=1;outlineConnect=0;" vertex="1" parent="1">
          <mxGeometry x="460" y="250" width="30" height="60" as="geometry" />
        </mxCell>
        <mxCell id="EpT9jE0YNKC7ViH85laE-8" value="Hacer pregunta" style="ellipse;whiteSpace=wrap;html=1;" vertex="1" parent="1">
          <mxGeometry x="250" y="150" width="120" height="50" as="geometry" />
        </mxCell>
        <mxCell id="EpT9jE0YNKC7ViH85laE-9" style="rounded=0;orthogonalLoop=1;jettySize=auto;html=1;exitX=1;exitY=0.3333333333333333;exitDx=0;exitDy=0;exitPerimeter=0;entryX=0;entryY=0.74;entryDx=0;entryDy=0;entryPerimeter=0;endArrow=none;endFill=0;" edge="1" parent="1" source="EpT9jE0YNKC7ViH85laE-1" target="EpT9jE0YNKC7ViH85laE-8">
          <mxGeometry relative="1" as="geometry" />
        </mxCell>
        <mxCell id="EpT9jE0YNKC7ViH85laE-10" style="rounded=0;orthogonalLoop=1;jettySize=auto;html=1;exitX=1;exitY=0.5;exitDx=0;exitDy=0;entryX=0;entryY=0.3333333333333333;entryDx=0;entryDy=0;entryPerimeter=0;endArrow=none;endFill=0;" edge="1" parent="1" source="EpT9jE0YNKC7ViH85laE-8" target="EpT9jE0YNKC7ViH85laE-7">
          <mxGeometry relative="1" as="geometry" />
        </mxCell>
        <mxCell id="EpT9jE0YNKC7ViH85laE-11" style="edgeStyle=none;rounded=0;orthogonalLoop=1;jettySize=auto;html=1;endArrow=none;endFill=0;" edge="1" parent="1" source="EpT9jE0YNKC7ViH85laE-4">
          <mxGeometry relative="1" as="geometry">
            <mxPoint x="180" y="500" as="sourcePoint" />
            <mxPoint x="270" y="550" as="targetPoint" />
          </mxGeometry>
        </mxCell>
        <mxCell id="EpT9jE0YNKC7ViH85laE-14" style="edgeStyle=none;rounded=0;orthogonalLoop=1;jettySize=auto;html=1;exitX=0;exitY=0.5;exitDx=0;exitDy=0;endArrow=none;endFill=0;" edge="1" parent="1" source="EpT9jE0YNKC7ViH85laE-12" target="EpT9jE0YNKC7ViH85laE-1">
          <mxGeometry relative="1" as="geometry" />
        </mxCell>
        <mxCell id="EpT9jE0YNKC7ViH85laE-12" value="Responder pregunta" style="ellipse;whiteSpace=wrap;html=1;" vertex="1" parent="1">
          <mxGeometry x="250" y="230" width="120" height="50" as="geometry" />
        </mxCell>
        <mxCell id="EpT9jE0YNKC7ViH85laE-15" value="Generar respuesta" style="ellipse;whiteSpace=wrap;html=1;" vertex="1" parent="1">
          <mxGeometry x="530" y="380" width="120" height="50" as="geometry" />
        </mxCell>
        <mxCell id="EpT9jE0YNKC7ViH85laE-16" style="edgeStyle=none;rounded=0;orthogonalLoop=1;jettySize=auto;html=1;exitX=0;exitY=0;exitDx=0;exitDy=0;endArrow=none;endFill=0;" edge="1" parent="1" source="EpT9jE0YNKC7ViH85laE-15">
          <mxGeometry relative="1" as="geometry">
            <mxPoint x="500" y="310" as="targetPoint" />
          </mxGeometry>
        </mxCell>
        <mxCell id="EpT9jE0YNKC7ViH85laE-18" value="&amp;lt;&amp;lt;include&amp;gt;&amp;gt;" style="edgeStyle=none;rounded=0;orthogonalLoop=1;jettySize=auto;html=1;exitX=1;exitY=0.5;exitDx=0;exitDy=0;dashed=1;entryX=0;entryY=0.5;entryDx=0;entryDy=0;endArrow=none;endFill=0;startArrow=classic;startFill=1;" edge="1" parent="1" source="EpT9jE0YNKC7ViH85laE-17" target="EpT9jE0YNKC7ViH85laE-15">
          <mxGeometry x="0.0015" relative="1" as="geometry">
            <mxPoint x="520" y="420" as="targetPoint" />
            <mxPoint as="offset" />
          </mxGeometry>
        </mxCell>
        <mxCell id="EpT9jE0YNKC7ViH85laE-17" value="Recuperar datos" style="ellipse;whiteSpace=wrap;html=1;" vertex="1" parent="1">
          <mxGeometry x="350" y="420" width="120" height="50" as="geometry" />
        </mxCell>
        <mxCell id="EpT9jE0YNKC7ViH85laE-20" value="&amp;lt;&amp;lt;include&amp;gt;&amp;gt;" style="edgeStyle=none;rounded=0;orthogonalLoop=1;jettySize=auto;html=1;exitX=1;exitY=0;exitDx=0;exitDy=0;dashed=1;entryX=0.775;entryY=0.94;entryDx=0;entryDy=0;entryPerimeter=0;startArrow=classic;startFill=1;endArrow=none;endFill=0;" edge="1" parent="1" source="EpT9jE0YNKC7ViH85laE-21" target="EpT9jE0YNKC7ViH85laE-15">
          <mxGeometry x="-0.0017" relative="1" as="geometry">
            <mxPoint x="820" y="450" as="targetPoint" />
            <mxPoint as="offset" />
          </mxGeometry>
        </mxCell>
        <mxCell id="EpT9jE0YNKC7ViH85laE-21" value="Formular repuesta" style="ellipse;whiteSpace=wrap;html=1;" vertex="1" parent="1">
          <mxGeometry x="490" y="485" width="120" height="50" as="geometry" />
        </mxCell>
        <mxCell id="EpT9jE0YNKC7ViH85laE-23" value="Actualizar datos del bot" style="ellipse;whiteSpace=wrap;html=1;" vertex="1" parent="1">
          <mxGeometry x="280" y="630" width="100" height="50" as="geometry" />
        </mxCell>
        <mxCell id="EpT9jE0YNKC7ViH85laE-25" value="&amp;lt;&amp;lt;extend&amp;gt;&amp;gt;" style="edgeStyle=none;rounded=0;orthogonalLoop=1;jettySize=auto;html=1;exitX=0.5;exitY=1;exitDx=0;exitDy=0;dashed=1;endArrow=none;endFill=0;startArrow=classic;startFill=1;" edge="1" parent="1" source="EpT9jE0YNKC7ViH85laE-17">
          <mxGeometry relative="1" as="geometry">
            <mxPoint x="330" y="530" as="targetPoint" />
          </mxGeometry>
        </mxCell>
        <mxCell id="EpT9jE0YNKC7ViH85laE-26" value="Iniciar la interfaz conversacional" style="ellipse;whiteSpace=wrap;html=1;" vertex="1" parent="1">
          <mxGeometry x="250" y="70" width="120" height="50" as="geometry" />
        </mxCell>
        <mxCell id="EpT9jE0YNKC7ViH85laE-29" style="edgeStyle=none;rounded=0;orthogonalLoop=1;jettySize=auto;html=1;exitX=0;exitY=0;exitDx=0;exitDy=0;endArrow=none;endFill=0;" edge="1" parent="1" source="EpT9jE0YNKC7ViH85laE-28">
          <mxGeometry relative="1" as="geometry">
            <mxPoint x="180" y="240" as="targetPoint" />
          </mxGeometry>
        </mxCell>
        <mxCell id="EpT9jE0YNKC7ViH85laE-28" value="Cerrar la interfaaz conversacional" style="ellipse;whiteSpace=wrap;html=1;" vertex="1" parent="1">
          <mxGeometry x="250" y="320" width="120" height="50" as="geometry" />
        </mxCell>
      </root>
    </mxGraphModel>
  </diagram>
  <diagram id="c-aA25YwnDqHGJLLu3OG" name="Page-3">
    <mxGraphModel dx="2261" dy="761" grid="1" gridSize="10" guides="1" tooltips="1" connect="1" arrows="1" fold="1" page="1" pageScale="1" pageWidth="827" pageHeight="1169" math="0" shadow="0">
      <root>
        <mxCell id="0" />
        <mxCell id="1" parent="0" />
        <mxCell id="7cJZBYG0wUoeC-L0r45j-1" value="Presentación" style="shape=umlLifeline;perimeter=lifelinePerimeter;whiteSpace=wrap;html=1;container=0;dropTarget=0;collapsible=0;recursiveResize=0;outlineConnect=0;portConstraint=eastwest;newEdgeStyle={&quot;edgeStyle&quot;:&quot;elbowEdgeStyle&quot;,&quot;elbow&quot;:&quot;vertical&quot;,&quot;curved&quot;:0,&quot;rounded&quot;:0};" vertex="1" parent="1">
          <mxGeometry x="100" y="40" width="100" height="720" as="geometry" />
        </mxCell>
        <mxCell id="7cJZBYG0wUoeC-L0r45j-2" value="" style="html=1;points=[];perimeter=orthogonalPerimeter;outlineConnect=0;targetShapes=umlLifeline;portConstraint=eastwest;newEdgeStyle={&quot;edgeStyle&quot;:&quot;elbowEdgeStyle&quot;,&quot;elbow&quot;:&quot;vertical&quot;,&quot;curved&quot;:0,&quot;rounded&quot;:0};" vertex="1" parent="7cJZBYG0wUoeC-L0r45j-1">
          <mxGeometry x="42.5" y="70" width="10" height="610" as="geometry" />
        </mxCell>
        <mxCell id="7cJZBYG0wUoeC-L0r45j-3" value="" style="html=1;points=[];perimeter=orthogonalPerimeter;outlineConnect=0;targetShapes=umlLifeline;portConstraint=eastwest;newEdgeStyle={&quot;edgeStyle&quot;:&quot;elbowEdgeStyle&quot;,&quot;elbow&quot;:&quot;vertical&quot;,&quot;curved&quot;:0,&quot;rounded&quot;:0};" vertex="1" parent="7cJZBYG0wUoeC-L0r45j-1">
          <mxGeometry x="47.5" y="150" width="10" height="510" as="geometry" />
        </mxCell>
        <mxCell id="7cJZBYG0wUoeC-L0r45j-5" value="Logica Negocio" style="shape=umlLifeline;perimeter=lifelinePerimeter;whiteSpace=wrap;html=1;container=0;dropTarget=0;collapsible=0;recursiveResize=0;outlineConnect=0;portConstraint=eastwest;newEdgeStyle={&quot;edgeStyle&quot;:&quot;elbowEdgeStyle&quot;,&quot;elbow&quot;:&quot;vertical&quot;,&quot;curved&quot;:0,&quot;rounded&quot;:0};" vertex="1" parent="1">
          <mxGeometry x="365" y="40" width="100" height="720" as="geometry" />
        </mxCell>
        <mxCell id="7cJZBYG0wUoeC-L0r45j-6" value="" style="html=1;points=[];perimeter=orthogonalPerimeter;outlineConnect=0;targetShapes=umlLifeline;portConstraint=eastwest;newEdgeStyle={&quot;edgeStyle&quot;:&quot;elbowEdgeStyle&quot;,&quot;elbow&quot;:&quot;vertical&quot;,&quot;curved&quot;:0,&quot;rounded&quot;:0};" vertex="1" parent="7cJZBYG0wUoeC-L0r45j-5">
          <mxGeometry x="45" y="80" width="10" height="570" as="geometry" />
        </mxCell>
        <mxCell id="7cJZBYG0wUoeC-L0r45j-7" value="" style="html=1;points=[[0,0,0,0,5],[0,1,0,0,-5],[1,0,0,0,5],[1,1,0,0,-5]];perimeter=orthogonalPerimeter;outlineConnect=0;targetShapes=umlLifeline;portConstraint=eastwest;newEdgeStyle={&quot;curved&quot;:0,&quot;rounded&quot;:0};" vertex="1" parent="7cJZBYG0wUoeC-L0r45j-5">
          <mxGeometry x="50" y="310" width="10" height="330" as="geometry" />
        </mxCell>
        <mxCell id="7cJZBYG0wUoeC-L0r45j-8" value="" style="html=1;points=[[0,0,0,0,5],[0,1,0,0,-5],[1,0,0,0,5],[1,1,0,0,-5]];perimeter=orthogonalPerimeter;outlineConnect=0;targetShapes=umlLifeline;portConstraint=eastwest;newEdgeStyle={&quot;curved&quot;:0,&quot;rounded&quot;:0};" vertex="1" parent="7cJZBYG0wUoeC-L0r45j-5">
          <mxGeometry x="55" y="360" width="10" height="270" as="geometry" />
        </mxCell>
        <mxCell id="7cJZBYG0wUoeC-L0r45j-9" value="10 : RAG(input)" style="html=1;align=left;spacingLeft=2;endArrow=block;rounded=0;edgeStyle=orthogonalEdgeStyle;curved=0;rounded=0;fontStyle=1" edge="1" parent="7cJZBYG0wUoeC-L0r45j-5" target="7cJZBYG0wUoeC-L0r45j-8">
          <mxGeometry relative="1" as="geometry">
            <mxPoint x="60" y="340" as="sourcePoint" />
            <Array as="points">
              <mxPoint x="90" y="370" />
            </Array>
          </mxGeometry>
        </mxCell>
        <mxCell id="7cJZBYG0wUoeC-L0r45j-10" value="4 : establecerConexion()" style="html=1;verticalAlign=bottom;endArrow=block;edgeStyle=elbowEdgeStyle;elbow=vertical;curved=0;rounded=0;" edge="1" parent="1">
          <mxGeometry relative="1" as="geometry">
            <mxPoint x="152.5" y="220" as="sourcePoint" />
            <Array as="points">
              <mxPoint x="325" y="220" />
            </Array>
            <mxPoint x="410.0000000000002" y="220" as="targetPoint" />
          </mxGeometry>
        </mxCell>
        <mxCell id="7cJZBYG0wUoeC-L0r45j-11" value="7 : Error(Conexión)" style="html=1;verticalAlign=bottom;endArrow=open;dashed=1;endSize=8;edgeStyle=elbowEdgeStyle;elbow=vertical;curved=0;rounded=0;" edge="1" parent="1">
          <mxGeometry relative="1" as="geometry">
            <mxPoint x="152.5" y="300" as="targetPoint" />
            <Array as="points">
              <mxPoint x="335" y="300" />
            </Array>
            <mxPoint x="410.0000000000002" y="300" as="sourcePoint" />
          </mxGeometry>
        </mxCell>
        <mxCell id="7cJZBYG0wUoeC-L0r45j-12" value="Usuario" style="shape=umlActor;verticalLabelPosition=bottom;verticalAlign=top;html=1;outlineConnect=0;" vertex="1" parent="1">
          <mxGeometry x="-120" y="40" width="20" height="30" as="geometry" />
        </mxCell>
        <mxCell id="7cJZBYG0wUoeC-L0r45j-13" value="2 : página" style="html=1;verticalAlign=bottom;endArrow=open;dashed=1;endSize=8;curved=0;rounded=0;" edge="1" parent="1">
          <mxGeometry relative="1" as="geometry">
            <mxPoint x="140" y="150" as="sourcePoint" />
            <mxPoint x="-110" y="150" as="targetPoint" />
          </mxGeometry>
        </mxCell>
        <mxCell id="7cJZBYG0wUoeC-L0r45j-14" value="API" style="shape=umlLifeline;perimeter=lifelinePerimeter;whiteSpace=wrap;html=1;container=0;dropTarget=0;collapsible=0;recursiveResize=0;outlineConnect=0;portConstraint=eastwest;newEdgeStyle={&quot;edgeStyle&quot;:&quot;elbowEdgeStyle&quot;,&quot;elbow&quot;:&quot;vertical&quot;,&quot;curved&quot;:0,&quot;rounded&quot;:0};" vertex="1" parent="1">
          <mxGeometry x="620" y="40" width="100" height="720" as="geometry" />
        </mxCell>
        <mxCell id="7cJZBYG0wUoeC-L0r45j-15" value="" style="html=1;points=[];perimeter=orthogonalPerimeter;outlineConnect=0;targetShapes=umlLifeline;portConstraint=eastwest;newEdgeStyle={&quot;edgeStyle&quot;:&quot;elbowEdgeStyle&quot;,&quot;elbow&quot;:&quot;vertical&quot;,&quot;curved&quot;:0,&quot;rounded&quot;:0};" vertex="1" parent="7cJZBYG0wUoeC-L0r45j-14">
          <mxGeometry x="45" y="320" width="10" height="330" as="geometry" />
        </mxCell>
        <mxCell id="7cJZBYG0wUoeC-L0r45j-16" value="5 : establecerConexion(token)" style="html=1;verticalAlign=bottom;endArrow=block;edgeStyle=elbowEdgeStyle;elbow=vertical;curved=0;rounded=0;" edge="1" parent="1" target="7cJZBYG0wUoeC-L0r45j-14">
          <mxGeometry relative="1" as="geometry">
            <mxPoint x="420" y="250" as="sourcePoint" />
            <Array as="points">
              <mxPoint x="592.5" y="250" />
            </Array>
            <mxPoint x="570" y="250" as="targetPoint" />
          </mxGeometry>
        </mxCell>
        <mxCell id="7cJZBYG0wUoeC-L0r45j-17" value="6 : Error(Conexión)" style="html=1;verticalAlign=bottom;endArrow=open;dashed=1;endSize=8;edgeStyle=elbowEdgeStyle;elbow=vertical;curved=0;rounded=0;" edge="1" parent="1">
          <mxGeometry relative="1" as="geometry">
            <mxPoint x="420" y="280" as="targetPoint" />
            <Array as="points">
              <mxPoint x="592.5" y="279.65999999999997" />
            </Array>
            <mxPoint x="667.5000000000002" y="279.65999999999997" as="sourcePoint" />
          </mxGeometry>
        </mxCell>
        <mxCell id="7cJZBYG0wUoeC-L0r45j-18" value="9 : LLM()" style="html=1;verticalAlign=bottom;endArrow=open;dashed=1;endSize=8;edgeStyle=elbowEdgeStyle;elbow=vertical;curved=0;rounded=0;" edge="1" parent="1" target="7cJZBYG0wUoeC-L0r45j-7">
          <mxGeometry relative="1" as="geometry">
            <mxPoint x="420" y="370.34000000000003" as="targetPoint" />
            <Array as="points">
              <mxPoint x="592.5" y="370" />
            </Array>
            <mxPoint x="667.5000000000002" y="370" as="sourcePoint" />
          </mxGeometry>
        </mxCell>
        <mxCell id="7cJZBYG0wUoeC-L0r45j-19" value="alt ErrorAPI" style="shape=umlFrame;whiteSpace=wrap;html=1;pointerEvents=0;width=130;height=30;" vertex="1" parent="1">
          <mxGeometry x="-180" y="260" width="890" height="80" as="geometry" />
        </mxCell>
        <mxCell id="7cJZBYG0wUoeC-L0r45j-20" value="8 : Error" style="html=1;verticalAlign=bottom;endArrow=open;dashed=1;endSize=8;edgeStyle=elbowEdgeStyle;elbow=vertical;curved=0;rounded=0;" edge="1" parent="1">
          <mxGeometry relative="1" as="geometry">
            <mxPoint x="-110" y="320" as="targetPoint" />
            <Array as="points">
              <mxPoint x="72.5" y="320" />
            </Array>
            <mxPoint x="147.50000000000023" y="320" as="sourcePoint" />
          </mxGeometry>
        </mxCell>
        <mxCell id="7cJZBYG0wUoeC-L0r45j-21" style="edgeStyle=orthogonalEdgeStyle;rounded=0;orthogonalLoop=1;jettySize=auto;html=1;endArrow=none;endFill=0;dashed=1;" edge="1" parent="1">
          <mxGeometry relative="1" as="geometry">
            <mxPoint x="-110" y="760" as="targetPoint" />
            <mxPoint x="-110" y="70" as="sourcePoint" />
          </mxGeometry>
        </mxCell>
        <mxCell id="7cJZBYG0wUoeC-L0r45j-22" value="1 : abrir página" style="html=1;verticalAlign=bottom;endArrow=block;curved=0;rounded=0;" edge="1" parent="1">
          <mxGeometry width="80" relative="1" as="geometry">
            <mxPoint x="-110" y="120" as="sourcePoint" />
            <mxPoint x="140" y="120" as="targetPoint" />
            <mxPoint as="offset" />
          </mxGeometry>
        </mxCell>
        <mxCell id="7cJZBYG0wUoeC-L0r45j-23" value="3 : hacePregunta(input)" style="html=1;verticalAlign=bottom;endArrow=block;curved=0;rounded=0;entryX=0.25;entryY=0;entryDx=0;entryDy=0;entryPerimeter=0;" edge="1" parent="1" target="7cJZBYG0wUoeC-L0r45j-3">
          <mxGeometry width="80" relative="1" as="geometry">
            <mxPoint x="-110" y="190" as="sourcePoint" />
            <mxPoint x="140" y="190" as="targetPoint" />
          </mxGeometry>
        </mxCell>
        <mxCell id="7cJZBYG0wUoeC-L0r45j-24" value="alt LLM Error" style="shape=umlFrame;whiteSpace=wrap;html=1;pointerEvents=0;width=130;height=30;" vertex="1" parent="1">
          <mxGeometry x="-180" y="510" width="890" height="80" as="geometry" />
        </mxCell>
        <mxCell id="7cJZBYG0wUoeC-L0r45j-26" value="14 : Error" style="html=1;verticalAlign=bottom;endArrow=open;dashed=1;endSize=8;edgeStyle=elbowEdgeStyle;elbow=vertical;curved=0;rounded=0;" edge="1" parent="1">
          <mxGeometry relative="1" as="geometry">
            <mxPoint x="-110" y="584" as="targetPoint" />
            <Array as="points">
              <mxPoint x="72.5" y="584" />
            </Array>
            <mxPoint x="147.50000000000023" y="584" as="sourcePoint" />
          </mxGeometry>
        </mxCell>
        <mxCell id="7cJZBYG0wUoeC-L0r45j-27" value="13 : Error(LLM)" style="html=1;verticalAlign=bottom;endArrow=open;dashed=1;endSize=8;edgeStyle=elbowEdgeStyle;elbow=vertical;curved=0;rounded=0;" edge="1" parent="1" target="7cJZBYG0wUoeC-L0r45j-3">
          <mxGeometry relative="1" as="geometry">
            <mxPoint x="163" y="560" as="targetPoint" />
            <Array as="points">
              <mxPoint x="332.5" y="560" />
            </Array>
            <mxPoint x="407.5000000000002" y="560" as="sourcePoint" />
          </mxGeometry>
        </mxCell>
        <mxCell id="7cJZBYG0wUoeC-L0r45j-28" value="alt exito" style="shape=umlFrame;whiteSpace=wrap;html=1;pointerEvents=0;width=130;height=30;" vertex="1" parent="1">
          <mxGeometry x="-180" y="630" width="890" height="80" as="geometry" />
        </mxCell>
        <mxCell id="7cJZBYG0wUoeC-L0r45j-29" value="17&amp;nbsp;: respuesta" style="html=1;verticalAlign=bottom;endArrow=open;dashed=1;endSize=8;edgeStyle=elbowEdgeStyle;elbow=vertical;curved=0;rounded=0;" edge="1" parent="1">
          <mxGeometry relative="1" as="geometry">
            <mxPoint x="-110" y="700" as="targetPoint" />
            <Array as="points">
              <mxPoint x="82.5" y="700" />
            </Array>
            <mxPoint x="140" y="700" as="sourcePoint" />
          </mxGeometry>
        </mxCell>
        <mxCell id="7cJZBYG0wUoeC-L0r45j-33" value="10 : Prompt(input, RAG)" style="html=1;align=left;spacingLeft=2;endArrow=block;rounded=0;edgeStyle=orthogonalEdgeStyle;curved=0;rounded=0;" edge="1" parent="1">
          <mxGeometry relative="1" as="geometry">
            <mxPoint x="430" y="420" as="sourcePoint" />
            <Array as="points">
              <mxPoint x="460" y="450" />
            </Array>
            <mxPoint x="435" y="450" as="targetPoint" />
          </mxGeometry>
        </mxCell>
        <mxCell id="7cJZBYG0wUoeC-L0r45j-34" value="" style="html=1;points=[[0,0,0,0,5],[0,1,0,0,-5],[1,0,0,0,5],[1,1,0,0,-5]];perimeter=orthogonalPerimeter;outlineConnect=0;targetShapes=umlLifeline;portConstraint=eastwest;newEdgeStyle={&quot;curved&quot;:0,&quot;rounded&quot;:0};" vertex="1" parent="1">
          <mxGeometry x="424" y="430" width="10" height="230" as="geometry" />
        </mxCell>
        <mxCell id="7cJZBYG0wUoeC-L0r45j-35" value="11 : chain(prompt)" style="html=1;verticalAlign=bottom;endArrow=block;edgeStyle=elbowEdgeStyle;elbow=vertical;curved=0;rounded=0;" edge="1" parent="1">
          <mxGeometry relative="1" as="geometry">
            <mxPoint x="430" y="484.66999999999996" as="sourcePoint" />
            <Array as="points">
              <mxPoint x="602.5" y="484.66999999999996" />
            </Array>
            <mxPoint x="670" y="485" as="targetPoint" />
          </mxGeometry>
        </mxCell>
        <mxCell id="7cJZBYG0wUoeC-L0r45j-36" value="12 : Error(LLM)" style="html=1;verticalAlign=bottom;endArrow=open;dashed=1;endSize=8;edgeStyle=elbowEdgeStyle;elbow=vertical;curved=0;rounded=0;" edge="1" parent="1">
          <mxGeometry x="0.0289" relative="1" as="geometry">
            <mxPoint x="424" y="530.3399999999999" as="targetPoint" />
            <Array as="points">
              <mxPoint x="596.5" y="529.9999999999999" />
            </Array>
            <mxPoint x="671.5000000000002" y="529.9999999999999" as="sourcePoint" />
            <mxPoint x="1" as="offset" />
          </mxGeometry>
        </mxCell>
        <mxCell id="7cJZBYG0wUoeC-L0r45j-37" value="15 : response()" style="html=1;verticalAlign=bottom;endArrow=open;dashed=1;endSize=8;edgeStyle=elbowEdgeStyle;elbow=vertical;curved=0;rounded=0;" edge="1" parent="1">
          <mxGeometry x="0.0289" relative="1" as="geometry">
            <mxPoint x="430" y="650.3399999999999" as="targetPoint" />
            <Array as="points">
              <mxPoint x="602.5" y="649.9999999999999" />
            </Array>
            <mxPoint x="670" y="650" as="sourcePoint" />
            <mxPoint x="1" as="offset" />
          </mxGeometry>
        </mxCell>
        <mxCell id="7cJZBYG0wUoeC-L0r45j-38" value="16 : response()" style="html=1;verticalAlign=bottom;endArrow=open;dashed=1;endSize=8;edgeStyle=elbowEdgeStyle;elbow=vertical;curved=0;rounded=0;" edge="1" parent="1" source="7cJZBYG0wUoeC-L0r45j-7">
          <mxGeometry x="0.0289" relative="1" as="geometry">
            <mxPoint x="160" y="669.8399999999999" as="targetPoint" />
            <Array as="points">
              <mxPoint x="332.5" y="669.4999999999999" />
            </Array>
            <mxPoint x="400" y="669.5" as="sourcePoint" />
            <mxPoint x="1" as="offset" />
          </mxGeometry>
        </mxCell>
      </root>
    </mxGraphModel>
  </diagram>
</mxfile>
